<svg width="12" height="13" viewBox="0 0 12 13" fill="none" xmlns="http://www.w3.org/2000/svg">
<g clip-path="url(#clip0_4892_20076)">
<path d="M11.1944 1.21314H8.1301V1.06571C8.1301 0.585714 7.7341 0.5 7.25067 0.5H4.73325C4.24982 0.5 3.85725 0.585714 3.85725 1.06571V1.21314H0.80496C0.736378 1.21303 0.668448 1.22645 0.605065 1.25265C0.541683 1.27884 0.484093 1.31729 0.435598 1.36578C0.387104 1.41428 0.348658 1.47187 0.322465 1.53525C0.296272 1.59863 0.282847 1.66656 0.28296 1.73514V2.74314C0.28296 2.88159 0.337956 3.01436 0.43585 3.11225C0.533744 3.21015 0.666517 3.26514 0.80496 3.26514H11.1944C11.3328 3.26514 11.4656 3.21015 11.5635 3.11225C11.6614 3.01436 11.7164 2.88159 11.7164 2.74314V1.73514C11.7164 1.5967 11.6614 1.46393 11.5635 1.36603C11.4656 1.26814 11.3328 1.21314 11.1944 1.21314Z" fill="#F46363"/>
<path d="M10.0989 4.65198H1.90034C1.82663 4.65263 1.7539 4.66885 1.68691 4.69958C1.61992 4.73032 1.56019 4.77487 1.51163 4.83031C1.46306 4.88575 1.42677 4.95083 1.40513 5.02129C1.38349 5.09174 1.37698 5.16598 1.38605 5.23912L2.22691 11.6008C2.25827 11.8481 2.37837 12.0756 2.56489 12.241C2.7514 12.4064 2.99163 12.4984 3.24091 12.5H8.75834C9.00835 12.4995 9.24962 12.4079 9.43703 12.2424C9.62444 12.0769 9.74516 11.8489 9.77662 11.6008L10.6166 5.23912C10.6259 5.16567 10.6194 5.09109 10.5976 5.02033C10.5758 4.94958 10.5392 4.88427 10.4902 4.82874C10.4413 4.77321 10.3811 4.72874 10.3136 4.69826C10.2461 4.66778 10.1729 4.65201 10.0989 4.65198Z" fill="#F46363"/>
</g>
<defs>
<clipPath id="clip0_4892_20076">
<rect width="12" height="12" fill="white" transform="translate(0 0.5)"/>
</clipPath>
</defs>
</svg>
