<svg width="16" height="10" viewBox="0 0 16 10" fill="none" xmlns="http://www.w3.org/2000/svg">
<path d="M2.19442 9H0.506925L3.57937 0.272727H5.53107L8.60778 9H6.92028L4.58931 2.0625H4.52113L2.19442 9ZM2.24982 5.57812H6.8521V6.84801H2.24982V5.57812ZM11.5726 9.1321C11.1578 9.1321 10.7843 9.05824 10.4519 8.91051C10.1223 8.75994 9.86097 8.53835 9.66779 8.24574C9.47745 7.95312 9.38228 7.59233 9.38228 7.16335C9.38228 6.79403 9.45046 6.48864 9.58683 6.24716C9.72319 6.00568 9.90927 5.8125 10.1451 5.66761C10.3809 5.52273 10.6465 5.41335 10.9419 5.33949C11.2402 5.26278 11.5485 5.20739 11.8667 5.1733C12.2502 5.13352 12.5613 5.09801 12.7999 5.06676C13.0385 5.03267 13.2118 4.98153 13.3198 4.91335C13.4306 4.84233 13.486 4.73295 13.486 4.58523V4.55966C13.486 4.23864 13.3908 3.99006 13.2005 3.81392C13.0101 3.63778 12.736 3.54972 12.378 3.54972C12.0002 3.54972 11.7005 3.6321 11.4789 3.79688C11.2601 3.96165 11.1124 4.15625 11.0357 4.38068L9.59535 4.17614C9.70898 3.77841 9.89648 3.44602 10.1578 3.17898C10.4192 2.90909 10.7388 2.70739 11.1167 2.57386C11.4945 2.4375 11.9121 2.36932 12.3695 2.36932C12.6848 2.36932 12.9988 2.40625 13.3113 2.48011C13.6238 2.55398 13.9093 2.67614 14.1678 2.84659C14.4263 3.0142 14.6337 3.2429 14.79 3.53267C14.949 3.82244 15.0286 4.18466 15.0286 4.61932V9H13.5456V8.10085H13.4945C13.4007 8.28267 13.2686 8.45312 13.0982 8.61222C12.9306 8.76847 12.7189 8.89489 12.4632 8.99148C12.2104 9.08523 11.9135 9.1321 11.5726 9.1321ZM11.9732 7.99858C12.2828 7.99858 12.5513 7.9375 12.7786 7.81534C13.0059 7.69034 13.1806 7.52557 13.3027 7.32102C13.4277 7.11648 13.4902 6.89347 13.4902 6.65199V5.88068C13.4419 5.92045 13.3596 5.95739 13.2431 5.99148C13.1294 6.02557 13.0016 6.0554 12.8596 6.08097C12.7175 6.10653 12.5769 6.12926 12.4377 6.14915C12.2985 6.16903 12.1777 6.18608 12.0755 6.20028C11.8453 6.23153 11.6394 6.28267 11.4576 6.35369C11.2757 6.42472 11.1323 6.52415 11.0272 6.65199C10.9221 6.77699 10.8695 6.93892 10.8695 7.13778C10.8695 7.42188 10.9732 7.63636 11.1806 7.78125C11.388 7.92614 11.6522 7.99858 11.9732 7.99858Z" fill="#393360"/>
</svg>
