<svg width="16" height="16" viewBox="0 0 16 16" fill="none" xmlns="http://www.w3.org/2000/svg">
<path d="M12.6084 3H6.3395C6.12247 3.00105 5.9145 3.08717 5.76027 3.23987C5.60604 3.39257 5.51785 3.59967 5.51465 3.81669V4.14908C5.51486 4.36778 5.60184 4.57746 5.75648 4.7321C5.91113 4.88675 6.1208 4.97372 6.3395 4.97393H12.6084C12.8267 4.9735 13.0359 4.88666 13.1903 4.73239C13.3447 4.57812 13.4318 4.36899 13.4324 4.15071V3.81832C13.4299 3.6011 13.342 3.39358 13.1879 3.24051C13.0338 3.08743 12.8256 3.00106 12.6084 3Z" fill="#393360"/>
<path d="M12.6084 6.74133H6.3395C6.12247 6.74238 5.9145 6.8285 5.76027 6.9812C5.60604 7.13391 5.51785 7.34101 5.51465 7.55802V7.89205C5.51486 8.11067 5.60186 8.32027 5.75653 8.47478C5.9112 8.62929 6.12088 8.71608 6.3395 8.71608H12.6084C12.8269 8.71587 13.0364 8.62898 13.1908 8.47449C13.3453 8.32 13.4322 8.11053 13.4324 7.89205V7.55884C13.4297 7.34176 13.3417 7.13445 13.1876 6.98155C13.0335 6.82865 12.8255 6.74239 12.6084 6.74133Z" fill="#393360"/>
<path d="M12.6179 10.4817H6.32658C6.11295 10.4827 5.90824 10.5689 5.75642 10.7216C5.60461 10.8743 5.5178 11.0814 5.51465 11.2984V11.6308C5.51507 11.8493 5.60078 12.0588 5.75298 12.2133C5.90517 12.3677 6.11145 12.4546 6.32658 12.4548H12.6179C12.8331 12.4548 13.0396 12.368 13.192 12.2136C13.3444 12.0591 13.4302 11.8495 13.4306 11.6308V11.2976C13.4272 11.0805 13.3402 10.8735 13.1883 10.721C13.0363 10.5684 12.8315 10.4825 12.6179 10.4817Z" fill="#393360"/>
<path d="M2.98738 4.97475C3.53269 4.97475 3.97475 4.53269 3.97475 3.98738C3.97475 3.44206 3.53269 3 2.98738 3C2.44206 3 2 3.44206 2 3.98738C2 4.53269 2.44206 4.97475 2.98738 4.97475Z" fill="#393360"/>
<path d="M2.98738 8.71608C3.53269 8.71608 3.97475 8.27402 3.97475 7.72871C3.97475 7.1834 3.53269 6.74133 2.98738 6.74133C2.44206 6.74133 2 7.1834 2 7.72871C2 8.27402 2.44206 8.71608 2.98738 8.71608Z" fill="#393360"/>
<path d="M2.98738 12.4573C3.53269 12.4573 3.97475 12.0152 3.97475 11.4699C3.97475 10.9246 3.53269 10.4825 2.98738 10.4825C2.44206 10.4825 2 10.9246 2 11.4699C2 12.0152 2.44206 12.4573 2.98738 12.4573Z" fill="#393360"/>
</svg>
