<svg width="19" height="12" viewBox="0 0 19 12" fill="none" xmlns="http://www.w3.org/2000/svg">
<mask id="path-2-inside-1_6090_11839" fill="white">
<rect x="3" y="4.5" width="3" height="3" rx="0.75"/>
</mask>
<rect x="3" y="4.5" width="3" height="3" rx="0.75" stroke="#8F95B2" stroke-width="2.1" mask="url(#path-2-inside-1_6090_11839)"/>
<mask id="path-3-inside-2_6090_11839" fill="white">
<path d="M4.92383 3.53823C4.92383 2.41255 5.83638 1.5 6.96206 1.5C8.08775 1.5 9.0003 2.41255 9.0003 3.53823C9.0003 4.66392 8.08775 5.57647 6.96206 5.57647H5.84148C5.33467 5.57647 4.92383 5.16563 4.92383 4.65882V3.53823Z"/>
</mask>
<path d="M4.92383 3.53823C4.92383 2.41255 5.83638 1.5 6.96206 1.5C8.08775 1.5 9.0003 2.41255 9.0003 3.53823C9.0003 4.66392 8.08775 5.57647 6.96206 5.57647H5.84148C5.33467 5.57647 4.92383 5.16563 4.92383 4.65882V3.53823Z" stroke="#8F95B2" stroke-width="2.1" mask="url(#path-3-inside-2_6090_11839)"/>
<mask id="path-4-inside-3_6090_11839" fill="white">
<path d="M4.07617 3.53823C4.07617 2.41255 3.16362 1.5 2.03794 1.5C0.912251 1.5 -0.000298023 2.41255 -0.000298023 3.53823C-0.000298023 4.66392 0.912251 5.57647 2.03794 5.57647H3.15852C3.66533 5.57647 4.07617 5.16563 4.07617 4.65882V3.53823Z"/>
</mask>
<path d="M4.07617 3.53823C4.07617 2.41255 3.16362 1.5 2.03794 1.5C0.912251 1.5 -0.000298023 2.41255 -0.000298023 3.53823C-0.000298023 4.66392 0.912251 5.57647 2.03794 5.57647H3.15852C3.66533 5.57647 4.07617 5.16563 4.07617 4.65882V3.53823Z" stroke="#8F95B2" stroke-width="2.1" mask="url(#path-4-inside-3_6090_11839)"/>
<mask id="path-5-inside-4_6090_11839" fill="white">
<path d="M4.92383 8.46177C4.92383 9.58745 5.83638 10.5 6.96206 10.5C8.08775 10.5 9.0003 9.58745 9.0003 8.46177C9.0003 7.33608 8.08775 6.42353 6.96206 6.42353H5.84148C5.33467 6.42353 4.92383 6.83437 4.92383 7.34118V8.46177Z"/>
</mask>
<path d="M4.92383 8.46177C4.92383 9.58745 5.83638 10.5 6.96206 10.5C8.08775 10.5 9.0003 9.58745 9.0003 8.46177C9.0003 7.33608 8.08775 6.42353 6.96206 6.42353H5.84148C5.33467 6.42353 4.92383 6.83437 4.92383 7.34118V8.46177Z" stroke="#8F95B2" stroke-width="2.1" mask="url(#path-5-inside-4_6090_11839)"/>
<mask id="path-6-inside-5_6090_11839" fill="white">
<path d="M4.07617 8.46177C4.07617 9.58745 3.16362 10.5 2.03794 10.5C0.912251 10.5 -0.000298023 9.58745 -0.000298023 8.46177C-0.000298023 7.33608 0.912251 6.42353 2.03794 6.42353H3.15852C3.66533 6.42353 4.07617 6.83437 4.07617 7.34118V8.46177Z"/>
</mask>
<path d="M4.07617 8.46177C4.07617 9.58745 3.16362 10.5 2.03794 10.5C0.912251 10.5 -0.000298023 9.58745 -0.000298023 8.46177C-0.000298023 7.33608 0.912251 6.42353 2.03794 6.42353H3.15852C3.66533 6.42353 4.07617 6.83437 4.07617 7.34118V8.46177Z" stroke="#8F95B2" stroke-width="2.1" mask="url(#path-6-inside-5_6090_11839)"/>
<path d="M17.6939 2.22727V9.5H16.522L13.0952 4.54616H13.0348V9.5H11.7173V2.22727H12.8963L16.3196 7.18466H16.3835V2.22727H17.6939Z" fill="#8F95B2"/>
</svg>
